<?xml version="1.0" encoding="UTF-8" standalone="no"?>
<svg
   width="15.790106"
   height="8.9721594"
   version="1.1"
   id="svg86"
   xml:space="preserve"
   xmlns="http://www.w3.org/2000/svg"
   xmlns:svg="http://www.w3.org/2000/svg"><defs
     id="defs90" /><path
     fill="#41ecad"
     d="m 2.395484,2.4748592 a 2.3968605,2.4254932 0 0 0 0,4.8509856 H 3.9933909 V 2.4748592 Z m 2.3968604,0 V 7.3258448 H 6.3902512 V 4.0918546 A 0.79895345,0.80849765 0 0 1 7.1892047,4.9003523 V 7.3258448 H 8.7871114 V 4.9003523 A 2.3968603,2.425493 0 0 0 6.3902512,2.4748592 Z m 3.994767,1.6169954 a 2.3968603,2.425493 0 0 0 2.3968606,2.4254922 0.79895345,0.80849765 0 0 1 -0.798953,0.808498 H 9.5860647 v 1.616995 H 10.385019 A 2.3968603,2.425493 0 0 0 12.78188,6.5173468 V 2.4748592 H 11.183972 V 4.9003523 A 0.79895345,0.80849765 0 0 1 10.385019,4.0918546 V 2.4748592 H 8.7871114 Z M 2.395484,5.7088498 a 0.79895363,0.80849783 0 0 1 0,-1.6169952 z"
     id="path84"
     style="stroke-width:0.803711" /><path
     fill="#e0e0e0"
     d="M 13.949649,-1.2844849e-8 C 13.609779,-1.2844849e-8 13.336164,0.28582729 13.336164,0.64086829 V 1.9226052 h 2.453942 V 0.64086829 C 15.790106,0.28582729 15.51649,-1.2844849e-8 15.17662,-1.2844849e-8 Z M 13.336164,2.5634743 v 4.4860785 l 1.226971,1.922606 1.226971,-1.922606 V 2.5634743 Z m 0.613485,0.6408685 h 0.613486 v 3.2043423 h -0.613486 z"
     id="path367"
     style="stroke-width:0.627027" /></svg>
